<svg width="203" height="70" viewBox="0 0 203 70" fill="none" xmlns="http://www.w3.org/2000/svg">
<rect x="0.5" y="0.5" width="202" height="69" rx="3.5" fill="#F2994A" stroke="#F2F2F2"/>
<path d="M24.122 28.526V41H21.17V28.526H24.122ZM31.9874 31.136C32.8154 31.136 33.4634 31.388 33.9314 31.892C34.3994 32.396 34.6334 33.104 34.6334 34.016V41H31.7894V34.502C31.7894 34.022 31.7114 33.692 31.5554 33.512C31.4114 33.32 31.1894 33.224 30.8894 33.224C30.3134 33.224 29.7614 33.638 29.2334 34.466V41H26.3894V31.442H28.8734L29.0714 32.576C29.4794 32.096 29.9174 31.736 30.3854 31.496C30.8654 31.256 31.3994 31.136 31.9874 31.136ZM44.8986 31.442L41.8926 41H38.5266L35.4486 31.442H38.5446L40.2366 38.84L42.0006 31.442H44.8986ZM54.0945 36.032C54.0945 36.428 54.0765 36.77 54.0405 37.058H48.1185C48.2145 37.862 48.4425 38.426 48.8025 38.75C49.1625 39.074 49.6605 39.236 50.2965 39.236C50.6805 39.236 51.0525 39.17 51.4125 39.038C51.7725 38.894 52.1625 38.678 52.5825 38.39L53.7525 39.974C52.6365 40.862 51.3945 41.306 50.0265 41.306C48.4785 41.306 47.2905 40.85 46.4625 39.938C45.6345 39.026 45.2205 37.802 45.2205 36.266C45.2205 35.294 45.3945 34.424 45.7425 33.656C46.0905 32.876 46.6005 32.264 47.2725 31.82C47.9445 31.364 48.7485 31.136 49.6845 31.136C51.0645 31.136 52.1445 31.568 52.9245 32.432C53.7045 33.296 54.0945 34.496 54.0945 36.032ZM51.3045 35.222C51.2805 33.758 50.7645 33.026 49.7565 33.026C49.2645 33.026 48.8805 33.206 48.6045 33.566C48.3405 33.926 48.1785 34.52 48.1185 35.348H51.3045V35.222ZM59.0582 31.136C59.7422 31.136 60.3842 31.238 60.9842 31.442C61.5842 31.646 62.1122 31.934 62.5682 32.306L61.5242 33.908C60.7442 33.416 59.9582 33.17 59.1662 33.17C58.7942 33.17 58.5062 33.236 58.3022 33.368C58.1102 33.488 58.0142 33.662 58.0142 33.89C58.0142 34.07 58.0562 34.22 58.1402 34.34C58.2362 34.448 58.4222 34.562 58.6982 34.682C58.9742 34.802 59.4002 34.946 59.9762 35.114C60.9722 35.402 61.7102 35.78 62.1902 36.248C62.6822 36.704 62.9282 37.34 62.9282 38.156C62.9282 38.804 62.7422 39.368 62.3702 39.848C61.9982 40.316 61.4882 40.676 60.8402 40.928C60.1922 41.18 59.4722 41.306 58.6802 41.306C57.8762 41.306 57.1262 41.18 56.4302 40.928C55.7462 40.676 55.1642 40.328 54.6842 39.884L56.0702 38.336C56.8742 38.96 57.7202 39.272 58.6082 39.272C59.0402 39.272 59.3762 39.194 59.6162 39.038C59.8682 38.882 59.9942 38.66 59.9942 38.372C59.9942 38.144 59.9462 37.964 59.8502 37.832C59.7542 37.7 59.5682 37.58 59.2922 37.472C59.0162 37.352 58.5782 37.208 57.9782 37.04C57.0302 36.764 56.3222 36.38 55.8542 35.888C55.3862 35.396 55.1522 34.784 55.1522 34.052C55.1522 33.5 55.3082 33.008 55.6202 32.576C55.9442 32.132 56.4002 31.784 56.9882 31.532C57.5882 31.268 58.2782 31.136 59.0582 31.136ZM70.3873 40.55C70.0393 40.79 69.6313 40.976 69.1633 41.108C68.7073 41.24 68.2513 41.306 67.7953 41.306C65.7073 41.294 64.6633 40.142 64.6633 37.85V33.422H63.3133V31.442H64.6633V29.372L67.5073 29.048V31.442H69.7033L69.3973 33.422H67.5073V37.814C67.5073 38.258 67.5793 38.576 67.7233 38.768C67.8673 38.96 68.0953 39.056 68.4073 39.056C68.7313 39.056 69.0733 38.954 69.4333 38.75L70.3873 40.55ZM85.2742 41H81.5122L77.9122 31.334C78.0322 32.282 78.1222 33.122 78.1822 33.854C78.2542 34.574 78.2902 35.432 78.2902 36.428V41H75.6622V28.526H79.3342L83.0242 38.21C82.7602 36.566 82.6282 35.018 82.6282 33.566V28.526H85.2742V41ZM91.6837 31.136C93.1477 31.136 94.2937 31.586 95.1217 32.486C95.9497 33.374 96.3637 34.622 96.3637 36.23C96.3637 37.25 96.1717 38.144 95.7877 38.912C95.4157 39.668 94.8757 40.256 94.1677 40.676C93.4717 41.096 92.6437 41.306 91.6837 41.306C90.2317 41.306 89.0857 40.862 88.2457 39.974C87.4177 39.074 87.0037 37.82 87.0037 36.212C87.0037 35.192 87.1897 34.304 87.5617 33.548C87.9457 32.78 88.4857 32.186 89.1817 31.766C89.8897 31.346 90.7237 31.136 91.6837 31.136ZM91.6837 33.224C91.1077 33.224 90.6757 33.47 90.3877 33.962C90.0997 34.442 89.9557 35.192 89.9557 36.212C89.9557 37.256 90.0937 38.018 90.3697 38.498C90.6577 38.978 91.0957 39.218 91.6837 39.218C92.2597 39.218 92.6917 38.978 92.9797 38.498C93.2677 38.006 93.4117 37.25 93.4117 36.23C93.4117 35.186 93.2677 34.424 92.9797 33.944C92.7037 33.464 92.2717 33.224 91.6837 33.224ZM110.331 31.442L108.351 41H104.949L103.671 33.98L102.411 41H99.0455L97.0115 31.442H99.8915L100.881 38.876L102.375 31.442H105.147L106.461 38.876L107.613 31.442H110.331Z" fill="white"/>
<circle opacity="0.25" cx="168" cy="35" r="15" fill="white"/>
<path d="M173 40.6667H162.333C161.597 40.6667 161 40.0693 161 39.3333V31.3333C161 30.5973 161.597 30 162.333 30H173C173.736 30 174.333 30.5973 174.333 31.3333V39.3333C174.333 40.0693 173.736 40.6667 173 40.6667ZM162.333 31.3333V39.3333H173V31.3333H162.333ZM163.667 33.3333H171.667V34.6667H163.667V33.3333ZM163.667 36H170.333V37.3333H163.667V36Z" fill="white"/>
</svg>
